<svg xmlns="http://www.w3.org/2000/svg" width="95.662" height="95.648" viewBox="0 0 95.662 95.648">
  <g id="Group_130" data-name="Group 130" transform="translate(-0.38 0)">
    <path id="Path_3036" data-name="Path 3036" d="M54.4,23.661l10.47,8.278c.039.03.078.058.119.084a31.82,31.82,0,0,0,4.6,3.015,32.568,32.568,0,0,0,15.38,3.874h.018a32.03,32.03,0,0,0,5.152-.418l2.7-.43a1.2,1.2,0,0,0,.941-1.408,1.207,1.207,0,0,0-1.332-.964l-.14.017-2.552.407a30.221,30.221,0,0,1-19.022-3.2,29.1,29.1,0,0,1-4.35-2.87c-.037-.028-.074-.055-.115-.081L55.891,21.776a3.618,3.618,0,0,1-.6-5.085l.121-.148a3.837,3.837,0,0,1,5.187-.272l8.544,6.756a1.2,1.2,0,1,0,1.584-1.814l-.092-.072-8.553-6.761a6.246,6.246,0,0,0-7.285-.42l-.22.14L51.2,11.889A4.417,4.417,0,0,0,47.69,11.3L35.168,14.455a3.618,3.618,0,0,1-4.4-2.622c-.016-.06-.031-.123-.042-.186a3.856,3.856,0,0,1,2.949-4.282L52.26,2.658a8.5,8.5,0,0,1,6.085.759L65.186,7.1a1.2,1.2,0,0,0,1.133-2.125L59.487,1.3A10.871,10.871,0,0,0,51.678.329l-18.6,4.71a6.193,6.193,0,0,0-4.707,7.089,6.005,6.005,0,0,0,7.04,4.739c.115-.023.231-.05.346-.079l12.527-3.167a1.983,1.983,0,0,1,1.613.28l3.052,1.992-.168.325a5.946,5.946,0,0,0-.644,3.26,6.085,6.085,0,0,0,2.26,4.183" transform="translate(2.223 0)" fill="#fff"/>
    <path id="Path_3037" data-name="Path 3037" d="M76.09,11.323,68.92,7.449A1.2,1.2,0,0,0,67.728,9.54l.051.026,7.169,3.872a26.807,26.807,0,0,0,14.73,3.148,1.2,1.2,0,0,0-.191-2.4,24.231,24.231,0,0,1-13.4-2.867" transform="translate(5.278 0.574)" fill="#fff"/>
    <path id="Path_3038" data-name="Path 3038" d="M15.1,78.038l7.169,3.874a1.2,1.2,0,0,0,1.207-2.083l-.068-.033L16.24,75.924a26.593,26.593,0,0,0-14.727-3.15,1.2,1.2,0,1,0,.1,2.405q.958-.073,1.91-.073A24.177,24.177,0,0,1,15.1,78.038" transform="translate(0.028 5.714)" fill="#fff"/>
    <path id="Path_3039" data-name="Path 3039" d="M27.927,86.54l6.823,3.677a10.92,10.92,0,0,0,5.152,1.3h.005a11.159,11.159,0,0,0,2.653-.323l18.6-4.716a6.193,6.193,0,0,0,4.707-7.089A6,6,0,0,0,63.376,75.6l-.206-.131a5.988,5.988,0,0,0-4.688-.744L45.955,77.89a2,2,0,0,1-1.609-.278l-3.057-1.994.168-.325a5.961,5.961,0,0,0,.646-3.257,6.088,6.088,0,0,0-2.261-4.185l-10.6-8.368a31.613,31.613,0,0,0-4.586-3.01A32.674,32.674,0,0,0,4.1,53.017l-2.7.431a1.19,1.19,0,0,0-.759.5A1.2,1.2,0,0,0,1.8,55.82l2.694-.429A30.22,30.22,0,0,1,23.518,58.6a29.01,29.01,0,0,1,4.351,2.871c.033.024.073.051.114.074l10.365,8.183a3.62,3.62,0,0,1,.6,5.085l-.126.152a3.831,3.831,0,0,1-5.183.267l-8.544-6.757a1.2,1.2,0,0,0-1.484,1.9l8.546,6.756a6.477,6.477,0,0,0,4.01,1.413,5.959,5.959,0,0,0,3.267-.984l.221-.145,3.381,2.207a4.436,4.436,0,0,0,3.514.593L59.07,77.058a3.627,3.627,0,0,1,4.4,2.623c.016.063.031.125.042.188a3.857,3.857,0,0,1-2.95,4.281L41.98,88.857a8.507,8.507,0,0,1-6.088-.759L29.06,84.416a1.177,1.177,0,0,0-.533-.127,1.2,1.2,0,0,0-.6,2.251" transform="translate(0.034 4.135)" fill="#fff"/>
    <path id="Path_3040" data-name="Path 3040" d="M43.856,73.326l1.04.05h.016A28.513,28.513,0,0,0,72.785,38.862a1.2,1.2,0,1,0-2.352.5,26.106,26.106,0,0,1-25.523,31.6h-.023l-.946-.05a1.15,1.15,0,0,0-.857.32,1.205,1.205,0,0,0,.773,2.087" transform="translate(3.356 2.98)" fill="#fff"/>
    <path id="Path_3041" data-name="Path 3041" d="M48.678,18.321a1.2,1.2,0,0,0-.837-.383L46.8,17.891h-.02A28.516,28.516,0,0,0,18.913,52.407a1.2,1.2,0,1,0,2.354-.5A26.1,26.1,0,0,1,46.78,20.3h.03l.949.047a1.151,1.151,0,0,0,.849-.3A1.173,1.173,0,0,0,49,19.234a1.233,1.233,0,0,0-.319-.912" transform="translate(1.436 1.406)" fill="#fff"/>
    <path id="Path_3042" data-name="Path 3042" d="M59.252,41.935a1.767,1.767,0,0,0-1.768-1.445h-1.51v-.029H55.9a10,10,0,0,0-19.994,0h-.052v.026H34.3a1.767,1.767,0,0,0-1.761,1.41,1.717,1.717,0,0,0,1.271,1.967.021.021,0,0,1,.012.012l2.362,11.187a1.892,1.892,0,0,0,1.885,1.885H54.026a1.892,1.892,0,0,0,1.885-1.885L58.3,43.75l.01-.01a1.713,1.713,0,0,0,.941-1.8M40.216,53.853a.67.67,0,0,1-1.341,0V44.469a.671.671,0,0,1,1.342,0Zm3.648.676h0a.671.671,0,0,1-.671-.67V44.476a.67.67,0,0,1,.67-.67.69.69,0,0,1,.671.67v9.384a.67.67,0,0,1-.67.67m4.314,0a.671.671,0,0,1-.67-.67V44.476a.671.671,0,0,1,1.341-.054.45.45,0,0,1,0,.054v9.384a.671.671,0,0,1-.671.67m4.985-.67a.671.671,0,0,1-1.341.054.449.449,0,0,1,0-.054V44.476a.671.671,0,0,1,1.341-.054.45.45,0,0,1,0,.054ZM37.434,40.492v-.026h-.042a8.5,8.5,0,0,1,17,0h-.013v.026Z" transform="translate(2.556 2.402)" fill="#fff"/>
  </g>
</svg>
