<svg id="Group_131" data-name="Group 131" xmlns="http://www.w3.org/2000/svg" xmlns:xlink="http://www.w3.org/1999/xlink" width="81.158" height="87.5" viewBox="0 0 81.158 87.5">
  <defs>
    <clipPath id="clip-path">
      <rect id="Rectangle_76" data-name="Rectangle 76" width="81.158" height="87.5" fill="#fff"/>
    </clipPath>
  </defs>
  <g id="Group_132" data-name="Group 132" clip-path="url(#clip-path)">
    <path id="Path_3065" data-name="Path 3065" d="M80.658,163.336l-11.489-9.7a5.851,5.851,0,0,0-3.452-8.365,5.876,5.876,0,0,0-.209-7.29,5.786,5.786,0,0,0-2.944-1.872,5.875,5.875,0,0,0-.519-6.837,5.806,5.806,0,0,0-3.6-2.006,5.843,5.843,0,0,0-5.037-7.739,5.8,5.8,0,0,0-4.274,1.353l-.217.183-6.585-3.072a5.874,5.874,0,0,0-7.923,1.8,6.285,6.285,0,0,0-.939,2.3l-1.435-1.212a5.854,5.854,0,0,0-9.309,6.387,5.862,5.862,0,0,0-4.125,8.841,5.848,5.848,0,0,0-3.152,9.161A5.841,5.841,0,0,0,12,153.633l-11.5,9.7a1.412,1.412,0,0,0,1.821,2.158l11.535-9.734,4.626,3.9a5.806,5.806,0,0,0,3.761,1.376c.168,0,.337-.008.507-.023a5.841,5.841,0,0,0,4.636-8.628,5.762,5.762,0,0,0,4.362-6.6h0a5.716,5.716,0,0,0,4.378-1.994,5.267,5.267,0,0,0,1.507-4c0-.051-.02-.1-.023-.148a5.68,5.68,0,0,0,.7.066c.168,0,.339-.007.508-.023a5.71,5.71,0,0,0,3.895-1.963,5.236,5.236,0,0,0,1.518-3.987A6.005,6.005,0,0,0,42.693,130l8.252-6.968a3.052,3.052,0,0,1,4.277.362,3.042,3.042,0,0,1-.364,4.276l-1.067.9h0a1.411,1.411,0,0,0,1.823,2.153l.007-.007a3.047,3.047,0,0,1,2.2-.693,3.005,3.005,0,0,1,2.066,1.059,3.039,3.039,0,0,1-.364,4.276l-2.264,1.915h0a1.411,1.411,0,0,0,1.823,2.155h0a3.052,3.052,0,0,1,2.209-.7,3,3,0,0,1,2.059,1.06,3.043,3.043,0,0,1-.363,4.276l-2.746,2.317h0a1.411,1.411,0,0,0,1.819,2.158l0,0a3.033,3.033,0,0,1,3.909,4.639l-12.825,10.83c-5.234,4.419-9.552,3.952-16.037,2.662a1.4,1.4,0,0,0-1.187.306l-19.313,16.3a1.411,1.411,0,0,0,1.822,2.156l18.8-15.867a33.4,33.4,0,0,0,7.5.789l18.024,15.083a1.411,1.411,0,1,0,1.813-2.164L48.447,169.8a17.373,17.373,0,0,0,6.515-3.627l12.346-10.418,11.529,9.735a1.41,1.41,0,1,0,1.82-2.155ZM36.9,124.986c-1.069-.9-.874-2.542-.147-3.627.359-.536,1.728-2.183,4.33-.839l5.456,2.546-5.957,5.03L36.912,125l-.01-.008s0,0,0-.006ZM24.574,157.138a3.04,3.04,0,0,1-4.268.361l-5.113-4.31a3.033,3.033,0,0,1,3.886-4.657l5.14,4.334a3.042,3.042,0,0,1,.356,4.272Zm3.749-8.469a3.04,3.04,0,0,1-4.274.365l-3.117-2.629s-.006-.008-.01-.013h0l-2.745-2.316a3.033,3.033,0,0,1,3.911-4.636h0s.008,0,.011.006l5.858,4.95A3.037,3.037,0,0,1,28.323,148.669Zm5.736-6.791a3.04,3.04,0,0,1-4.277.361l-5.891-4.975-.006,0-2.248-1.9a3.033,3.033,0,0,1,3.9-4.643l.013.011,8.142,6.87a3.254,3.254,0,0,1,1.131,2.309,2.56,2.56,0,0,1-.767,1.966Zm6.588-6.063a3.042,3.042,0,0,1-4.266.364.154.154,0,0,0-.189-.027,6.167,6.167,0,0,0-.677-.706l-8.143-6.872c-.006-.006-.011-.008-.017-.014l-1.054-.888a3.034,3.034,0,0,1,3.911-4.64l1.929,1.63s0,0,0,0l3.065,2.588.948.8h0l4.132,3.491a3.249,3.249,0,0,1,1.13,2.31A2.546,2.546,0,0,1,40.647,135.815Z" transform="translate(0 -98.276)" fill="#fff"/>
    <path id="Path_3066" data-name="Path 3066" d="M279.307,10.246a1.41,1.41,0,0,0,1.411-1.411V1.411a1.411,1.411,0,1,0-2.823,0V8.834a1.41,1.41,0,0,0,1.411,1.411" transform="translate(-233.074)" fill="#fff"/>
    <path id="Path_3067" data-name="Path 3067" d="M395.238,42.884a1.416,1.416,0,0,0,1.14-.576l4.391-5.984a1.412,1.412,0,0,0-2.277-1.67L394.1,40.639a1.41,1.41,0,0,0,1.137,2.245Z" transform="translate(-330.307 -28.581)" fill="#fff"/>
    <path id="Path_3068" data-name="Path 3068" d="M139.4,42.316a1.411,1.411,0,0,0,2.275-1.67l-4.393-5.984A1.41,1.41,0,0,0,135,36.332Z" transform="translate(-112.999 -28.588)" fill="#fff"/>
  </g>
</svg>
